<svg xmlns="http://www.w3.org/2000/svg" viewBox="0 0 15.688 15.816"><g fill="#fff"><path d="M14.779 14.906l-2.943-2.942-.558-.558-.63.473A6.033 6.033 0 0 1 7 13.09a6.05 6.05 0 0 1-4.305-1.783A6.05 6.05 0 0 1 .91 7a6.05 6.05 0 0 1 1.785-4.306A6.05 6.05 0 0 1 7 .91a6.05 6.05 0 0 1 4.306 1.784 6.087 6.087 0 0 1 .476 8.078l-.503.635.573.573 2.926 2.926z"/><path d="M7 12.18a5.13 5.13 0 0 0 3.101-1.029l.545-.408.423-.535a5.177 5.177 0 0 0-.406-6.87A5.145 5.145 0 0 0 7.001 1.82a5.146 5.146 0 0 0-3.663 1.517A5.147 5.147 0 0 0 1.82 7c0 1.384.54 2.685 1.518 3.663A5.145 5.145 0 0 0 7 12.18m7.779 3.636a.907.907 0 0 1-.644-.266l-2.942-2.943A6.982 6.982 0 0 1 7.001 14 7 7 0 1 1 7 0a7.002 7.002 0 0 1 5.496 11.336l2.925 2.927a.91.91 0 0 1-.643 1.553z" fill="#348af7"/></g></svg>